<svg width="149" height="132" viewBox="0 0 149 132" fill="none" xmlns="http://www.w3.org/2000/svg">
    <path d="M149 33.4902C149 67.4534 105.58 114.805 75.3371 132C44.8918 114.222 0 71.2422 0 37.2791C0 3.31592 61.9439 -12.5587 75.3371 14.5461C91.2416 -11.814 149 -0.472915 149 33.4902Z" fill="#ED0D0D"/>
    <path d="M54.6504 43.2344L44.0508 67H40.6406L51.2051 44.0781H37.3535V41.4062H54.6504V43.2344ZM74.3906 56.084C74.3906 59.8926 73.7402 62.7227 72.4395 64.5742C71.1387 66.4258 69.1055 67.3516 66.3398 67.3516C63.6094 67.3516 61.5879 66.4492 60.2754 64.6445C58.9629 62.8281 58.2832 60.1211 58.2363 56.5234V52.1816C58.2363 48.4199 58.8867 45.625 60.1875 43.7969C61.4883 41.9688 63.5273 41.0547 66.3047 41.0547C69.0586 41.0547 71.0859 41.9395 72.3867 43.709C73.6875 45.4668 74.3555 48.1855 74.3906 51.8652V56.084ZM71.1387 51.6367C71.1387 48.8828 70.752 46.8789 69.9785 45.625C69.2051 44.3594 67.9805 43.7266 66.3047 43.7266C64.6406 43.7266 63.4277 44.3535 62.666 45.6074C61.9043 46.8613 61.5117 48.7891 61.4883 51.3906V56.5938C61.4883 59.3594 61.8867 61.4043 62.6836 62.7285C63.4922 64.041 64.7109 64.6973 66.3398 64.6973C67.9453 64.6973 69.1348 64.0762 69.9082 62.834C70.6934 61.5918 71.1035 59.6348 71.1387 56.9629V51.6367ZM87.2051 46.3281C87.2051 44.793 87.6914 43.5273 88.6641 42.5312C89.6484 41.5352 90.9082 41.0371 92.4434 41.0371C94.002 41.0371 95.2617 41.541 96.2227 42.5488C97.1953 43.5449 97.6816 44.8398 97.6816 46.4336V47.6816C97.6816 49.2285 97.1895 50.4941 96.2051 51.4785C95.2324 52.4512 93.9902 52.9375 92.4785 52.9375C90.9551 52.9375 89.6953 52.4512 88.6992 51.4785C87.7031 50.4941 87.2051 49.1875 87.2051 47.5586V46.3281ZM89.6309 47.6816C89.6309 48.5957 89.8887 49.3516 90.4043 49.9492C90.9199 50.5352 91.6113 50.8281 92.4785 50.8281C93.3105 50.8281 93.9785 50.541 94.4824 49.9668C94.998 49.3926 95.2559 48.6074 95.2559 47.6113V46.3281C95.2559 45.4141 95.0039 44.6582 94.5 44.0605C93.9961 43.4629 93.3105 43.1641 92.4434 43.1641C91.5762 43.1641 90.8906 43.4629 90.3867 44.0605C89.8828 44.6582 89.6309 45.4375 89.6309 46.3984V47.6816ZM99.668 60.7246C99.668 59.1895 100.154 57.9297 101.127 56.9453C102.111 55.9492 103.371 55.4512 104.906 55.4512C106.441 55.4512 107.701 55.9434 108.686 56.9277C109.67 57.9121 110.162 59.2188 110.162 60.8477V62.0957C110.162 63.6309 109.67 64.8965 108.686 65.8926C107.713 66.877 106.465 67.3691 104.941 67.3691C103.418 67.3691 102.158 66.8828 101.162 65.9102C100.166 64.9258 99.668 63.6191 99.668 61.9902V60.7246ZM102.094 62.0957C102.094 63.0215 102.352 63.7832 102.867 64.3809C103.383 64.9668 104.074 65.2598 104.941 65.2598C105.785 65.2598 106.459 64.9727 106.963 64.3984C107.467 63.8125 107.719 63.0215 107.719 62.0254V60.7246C107.719 59.7988 107.461 59.043 106.945 58.457C106.441 57.8711 105.762 57.5781 104.906 57.5781C104.074 57.5781 103.395 57.8711 102.867 58.457C102.352 59.0312 102.094 59.8105 102.094 60.7949V62.0957ZM93.2168 65.0664L91.3711 63.9062L103.869 43.9023L105.715 45.0625L93.2168 65.0664Z" fill="#FDF1F1"/>
</svg>
