<svg width="59" height="61" viewBox="0 0 59 61" fill="none" xmlns="http://www.w3.org/2000/svg">
    <path d="M12.4638 40.6667C12.3482 39.8247 12.2907 38.9754 12.2917 38.125V35.5833H7.375V30.5H12.2917V27.9583C12.2917 27.0942 12.3507 26.2478 12.4638 25.4167H7.375V20.3333H13.9486C15.4555 17.0584 17.8906 14.3351 20.9302 12.5253L18.349 9.85657L21.83 6.2652L25.9674 10.5454C28.2989 10.0416 30.706 10.0416 33.0375 10.5454L37.1749 6.2652L40.6535 9.86166L38.0722 12.5304C41.1103 14.3393 43.5444 17.0607 45.0514 20.3333H51.625V25.4167H46.5362C46.6493 26.2478 46.7083 27.0942 46.7083 27.9583V30.5H51.625V35.5833H46.7083V38.125C46.7083 38.9892 46.6493 39.8355 46.5362 40.6667H51.625V45.75H45.0514C43.6566 48.794 41.4547 51.366 38.7017 53.1671C35.9488 54.9683 32.7579 55.9244 29.5 55.9244C26.2421 55.9244 23.0512 54.9683 20.2983 53.1671C17.5453 51.366 15.3434 48.794 13.9486 45.75H7.375V40.6667H12.4638ZM22.125 25.4167V30.5H36.875V25.4167H22.125ZM22.125 35.5833V40.6667H36.875V35.5833H22.125Z" fill="black"/>
</svg>
