<svg width="73" height="91" viewBox="0 0 73 91" fill="none" xmlns="http://www.w3.org/2000/svg">
    <path d="M72 45.5C72 70.2936 55.9116 90 36.5 90C17.0884 90 1 70.2936 1 45.5C1 20.7064 17.0884 1 36.5 1C55.9116 1 72 20.7064 72 45.5Z" fill="#C4C4C4" stroke="black" stroke-width="2"/>
    <path d="M27.7345 21.713L26.5375 19.0996L25.854 21.8916C24.3512 28.0297 20.7017 34.8633 16.0655 38.7798C13.7581 40.7289 11.2716 41.9025 8.73163 41.9942C6.31102 42.0815 3.70158 41.1915 1.00168 38.7891C1.09508 26.5869 5.07361 17.1984 11.4351 10.8434C17.8768 4.40814 26.8448 1 36.9398 1C47.0322 1 55.7736 4.40602 61.9929 10.8314C68.1212 17.1627 71.8881 26.5169 71.9976 38.6828C69.1199 40.4267 65.37 41.0016 61.1679 40.6532C56.7552 40.2872 51.9427 38.9096 47.3397 36.9278C42.74 34.9473 38.3891 32.3805 34.9011 29.6697C31.39 26.941 28.8448 24.1373 27.7345 21.713Z" fill="#171414" stroke="black" stroke-width="2"/>
    <path d="M27 55.5C27 57.3365 25.3109 59 23 59C20.6891 59 19 57.3365 19 55.5C19 53.6635 20.6891 52 23 52C25.3109 52 27 53.6635 27 55.5Z" fill="#C4C4C4" stroke="black" stroke-width="2"/>
    <path d="M59 55.5C59 57.3365 57.3109 59 55 59C52.6891 59 51 57.3365 51 55.5C51 53.6635 52.6891 52 55 52C57.3109 52 59 53.6635 59 55.5Z" fill="#C4C4C4" stroke="black" stroke-width="2"/>
</svg>
